<?xml version="1.0" encoding="UTF-8" standalone="no"?>
<svg
   xmlns:dc="http://purl.org/dc/elements/1.1/"
   xmlns:cc="http://creativecommons.org/ns#"
   xmlns:rdf="http://www.w3.org/1999/02/22-rdf-syntax-ns#"
   xmlns:svg="http://www.w3.org/2000/svg"
   xmlns="http://www.w3.org/2000/svg"
   viewBox="0 0 2560 1440"
   height="1440"
   width="2560"
   xml:space="preserve"
   id="svg2"
   version="1.1"><metadata
     id="metadata8"><rdf:RDF><cc:Work
         rdf:about=""><dc:format>image/svg+xml</dc:format><dc:type
           rdf:resource="http://purl.org/dc/dcmitype/StillImage" /></cc:Work></rdf:RDF></metadata><defs
     id="defs6"><clipPath
       id="clipPath18"
       clipPathUnits="userSpaceOnUse"><path
         id="path16"
         d="M 0,1080 H 1920 V 0 H 0 Z" /></clipPath></defs><g
     transform="matrix(1.3333333,0,0,-1.3333333,0,1440)"
     id="g10"><g
       id="g12"><g
         clip-path="url(#clipPath18)"
         id="g14"><g
           transform="translate(808.1829,609.4032)"
           id="g20"><path
             id="path22"
             style="fill:#000000;fill-opacity:1;fill-rule:nonzero;stroke:none"
             d="m 0,0 -0.021,-30.128 -63.646,0.044 0.02,30.127 c 10e-4,0.816 0.232,1.388 0.775,1.907 0.572,0.548 1.168,0.793 1.93,0.792 L -2.699,2.703 C -1.87,2.702 -1.267,2.471 -0.751,1.953 -0.23,1.433 0.001,0.829 0,0 M 8.567,11.12 C 7.14,12.549 5.446,13.692 3.53,14.516 1.595,15.348 -0.498,15.77 -2.69,15.772 l -58.243,0.039 c -2.196,0.002 -4.29,-0.419 -6.224,-1.247 -1.919,-0.822 -3.616,-1.962 -5.04,-3.387 -1.424,-1.42 -2.562,-3.083 -3.387,-4.945 -0.837,-1.902 -1.263,-3.98 -1.265,-6.18 l -0.057,-84.664 13.201,-0.008 0.029,41.469 63.647,-0.043 -0.029,-41.47 13.202,-0.009 0.058,84.664 C 13.203,2.197 12.78,4.277 11.943,6.175 11.125,8.032 9.989,9.696 8.567,11.12" /></g><g
           transform="translate(932.0773,579.8872)"
           id="g24"><path
             id="path26"
             style="fill:#000000;fill-opacity:1;fill-rule:nonzero;stroke:none"
             d="m 0,0 c -0.519,-0.541 -1.09,-0.772 -1.907,-0.772 l -60.946,0.042 0.022,32.905 60.946,-0.041 c 0.829,-10e-4 1.432,-0.232 1.949,-0.749 0.52,-0.521 0.751,-1.125 0.75,-1.954 L 0.796,1.927 C 0.795,1.166 0.55,0.572 0,0 m -1.916,-13.841 c 2.192,-0.001 4.286,0.418 6.222,1.247 1.914,0.819 3.61,1.958 5.041,3.388 1.432,1.429 2.574,3.123 3.397,5.037 0.83,1.933 1.252,3.98 1.253,6.087 l 0.019,27.504 c 10e-4,2.206 -0.421,4.286 -1.259,6.184 -0.818,1.857 -1.954,3.522 -3.376,4.945 -1.427,1.429 -3.121,2.572 -5.037,3.397 -1.935,0.832 -4.028,1.253 -6.22,1.255 l -74.148,0.05 -0.068,-100.433 13.202,-0.009 0.028,41.39 45.3,-0.031 19.117,-41.403 14.898,-0.01 -19.252,41.403 z" /></g><g
           transform="translate(1182.9832,609.1484)"
           id="g28"><path
             id="path30"
             style="fill:#000000;fill-opacity:1;fill-rule:nonzero;stroke:none"
             d="m 0,0 -0.047,-68.894 c 0,-0.762 -0.246,-1.355 -0.795,-1.927 -0.519,-0.542 -1.09,-0.773 -1.907,-0.772 l -58.243,0.039 c -0.751,0.001 -1.313,0.246 -1.888,0.821 -0.562,0.563 -0.814,1.144 -0.814,1.882 l 0.047,68.894 c 10e-4,0.816 0.232,1.388 0.775,1.907 0.573,0.549 1.168,0.793 1.93,0.792 L -2.699,2.703 C -1.87,2.702 -1.267,2.471 -0.751,1.953 -0.23,1.433 0.001,0.829 0,0 M 11.943,6.175 C 11.125,8.032 9.989,9.696 8.567,11.12 7.14,12.549 5.446,13.692 3.53,14.516 1.595,15.348 -0.498,15.77 -2.69,15.772 l -58.243,0.039 c -2.196,0.002 -4.29,-0.419 -6.224,-1.247 -1.919,-0.822 -3.616,-1.962 -5.04,-3.387 -1.423,-1.42 -2.562,-3.083 -3.386,-4.945 -0.839,-1.902 -1.264,-3.98 -1.265,-6.18 l -0.047,-68.894 c -0.002,-2.103 0.417,-4.153 1.245,-6.089 0.822,-1.919 1.962,-3.616 3.388,-5.04 1.427,-1.433 3.122,-2.575 5.037,-3.394 1.934,-0.832 4.028,-1.256 6.224,-1.257 l 58.243,-0.04 c 2.192,-10e-4 4.286,0.418 6.222,1.247 1.915,0.818 3.61,1.958 5.041,3.388 1.432,1.429 2.574,3.123 3.395,5.035 0.832,1.931 1.254,3.98 1.255,6.089 l 0.047,68.894 c 10e-4,2.206 -0.421,4.286 -1.259,6.184" /></g><g
           transform="translate(1058.2585,563.2587)"
           id="g32"><path
             id="path34"
             style="fill:#000000;fill-opacity:1;fill-rule:nonzero;stroke:none"
             d="m 0,0 -0.031,-22.92 c 0,-0.761 -0.245,-1.355 -0.795,-1.927 -0.519,-0.541 -1.09,-0.773 -1.907,-0.772 l -58.243,0.04 c -0.751,0 -1.313,0.246 -1.888,0.82 -0.562,0.564 -0.814,1.144 -0.814,1.883 l 0.047,68.894 c 10e-4,0.815 0.233,1.388 0.775,1.906 0.573,0.549 1.168,0.793 1.93,0.793 l 74.146,-0.05 0.009,13.068 -74.146,0.051 c -2.196,10e-4 -4.29,-0.419 -6.224,-1.247 -1.919,-0.822 -3.616,-1.962 -5.04,-3.388 -1.423,-1.419 -2.562,-3.083 -3.386,-4.944 -0.838,-1.903 -1.264,-3.98 -1.265,-6.18 l -0.047,-68.894 c -0.002,-2.104 0.417,-4.153 1.245,-6.089 0.821,-1.919 1.962,-3.616 3.388,-5.04 1.427,-1.434 3.123,-2.576 5.036,-3.395 1.936,-0.832 4.029,-1.255 6.225,-1.257 l 58.243,-0.039 c 2.192,-0.002 4.286,0.417 6.222,1.247 1.914,0.818 3.61,1.958 5.041,3.387 1.432,1.429 2.574,3.123 3.395,5.035 0.832,1.931 1.254,3.98 1.255,6.089 l 0.017,25.675 0.009,13.015 -45.025,0.031 -0.009,-13.069 29.138,0.033 v 0.005 c 0.762,0 1.355,-0.251 1.927,-0.813 C -0.23,1.418 0.001,0.835 0,0" /></g><g
           transform="translate(738.2557,476.2946)"
           id="g36"><path
             id="path38"
             style="fill:#000000;fill-opacity:1;fill-rule:nonzero;stroke:none"
             d="m 0,0 c 1.231,-1.518 3.167,-2.276 5.806,-2.278 2.113,-10e-4 3.796,0.518 5.051,1.56 1.254,1.041 1.882,2.557 1.883,4.546 10e-4,1.516 -0.328,2.676 -0.988,3.483 C 11.093,8.116 10.29,8.673 9.345,8.983 8.398,9.29 6.892,9.682 4.826,10.158 c -1.981,0.427 -3.719,0.996 -5.213,1.708 -1.496,0.712 -2.738,1.766 -3.727,3.164 -0.989,1.399 -1.483,3.235 -1.481,5.509 0.002,3.221 1.07,5.742 3.206,7.565 2.135,1.822 4.741,2.733 7.822,2.73 3.211,-0.002 5.676,-0.679 7.39,-2.03 1.715,-1.35 3.099,-3.211 4.154,-5.581 L 12.223,20.669 C 11.564,22.232 10.696,23.465 9.62,24.365 8.541,25.266 7.101,25.718 5.297,25.719 3.757,25.72 2.514,25.33 1.569,24.549 0.62,23.768 0.147,22.642 0.146,21.175 c 0,-1.706 0.493,-2.903 1.483,-3.589 0.99,-0.689 2.584,-1.27 4.784,-1.744 0.219,-0.097 0.593,-0.191 1.121,-0.285 2.288,-0.477 4.18,-1.023 5.675,-1.639 1.495,-0.617 2.792,-1.672 3.891,-3.164 1.099,-1.494 1.647,-3.566 1.646,-6.219 -0.002,-2.369 -0.51,-4.477 -1.522,-6.323 -1.014,-1.847 -2.5,-3.302 -4.457,-4.367 -1.96,-1.064 -4.281,-1.596 -6.964,-1.594 -4.4,0.003 -7.654,1.165 -9.765,3.488 -2.11,2.321 -3.341,5.118 -3.691,8.387 L -2.636,5.9 C -2.109,3.483 -1.231,1.516 0,0" /></g><g
           transform="translate(803.9661,495.2585)"
           id="g40"><path
             id="path42"
             style="fill:#000000;fill-opacity:1;fill-rule:nonzero;stroke:none"
             d="m 0,0 c -0.901,2.06 -2.232,3.624 -3.989,4.691 -1.759,1.068 -3.871,1.601 -6.335,1.603 -2.728,0.002 -5.059,-0.565 -6.996,-1.7 -1.938,-1.135 -3.401,-2.746 -4.392,-4.829 -0.991,-2.084 -1.489,-4.547 -1.491,-7.389 -0.001,-2.984 0.558,-5.495 1.678,-7.533 1.122,-2.038 2.615,-3.555 4.486,-4.55 1.868,-0.997 3.902,-1.495 6.103,-1.497 2.772,-0.002 5.082,0.624 6.93,1.879 1.85,1.252 3.203,2.922 4.063,5.007 0.859,2.083 1.29,4.379 1.292,6.892 C 1.351,-4.537 0.9,-2.062 0,0 m 5.136,-17.555 c -1.564,-2.96 -3.71,-5.232 -6.439,-6.818 -2.73,-1.584 -5.832,-2.375 -9.307,-2.373 -2.112,0.002 -3.992,0.323 -5.642,0.963 -1.649,0.64 -3.024,1.458 -4.123,2.454 -1.099,0.996 -1.978,2.061 -2.638,3.2 l -0.014,-20.252 -5.872,0.004 0.034,51.16 5.675,-0.004 -0.004,-5.897 c 0.661,1.232 1.629,2.367 2.907,3.409 1.276,1.041 2.805,1.892 4.588,2.555 1.782,0.661 3.685,0.992 5.709,0.991 3.651,-0.003 6.786,-0.775 9.403,-2.316 C 2.028,7.979 4.029,5.776 5.414,2.909 6.798,0.042 7.488,-3.31 7.486,-7.148 7.483,-11.127 6.699,-14.596 5.136,-17.555" /></g><g
           transform="translate(851.996,475.7201)"
           id="g44"><path
             id="path46"
             style="fill:#000000;fill-opacity:1;fill-rule:nonzero;stroke:none"
             d="m 0,0 c 1.826,1.136 3.246,2.78 4.26,4.935 1.013,2.156 1.522,4.725 1.524,7.709 0.001,2.558 -0.483,4.833 -1.448,6.822 -0.968,1.991 -2.363,3.543 -4.188,4.657 -1.825,1.115 -3.991,1.673 -6.499,1.675 -2.42,0.001 -4.554,-0.565 -6.402,-1.7 -1.849,-1.136 -3.27,-2.734 -4.26,-4.794 -0.992,-2.061 -1.489,-4.465 -1.49,-7.211 -0.002,-2.891 0.469,-5.366 1.413,-7.426 0.945,-2.063 2.318,-3.639 4.123,-4.729 1.801,-1.092 4.002,-1.637 6.598,-1.639 C -3.951,-1.703 -1.827,-1.135 0,0 m -16.271,-4.891 c -2.727,1.565 -4.805,3.769 -6.231,6.612 -1.429,2.843 -2.141,6.183 -2.139,10.02 0.003,3.837 0.774,7.235 2.316,10.195 1.542,2.959 3.71,5.267 6.506,6.925 2.795,1.655 5.996,2.481 9.604,2.479 3.607,-0.002 6.786,-0.81 9.534,-2.422 2.748,-1.613 4.87,-3.841 6.365,-6.683 1.493,-2.843 2.239,-6.067 2.237,-9.666 C 11.918,8.685 11.134,5.239 9.571,2.233 8.007,-0.775 5.839,-3.107 3.066,-4.763 c -2.774,-1.656 -5.964,-2.482 -9.571,-2.48 -3.784,0.003 -7.04,0.786 -9.766,2.352" /></g><g
           transform="translate(899.3628,501.0915)"
           id="g48"><path
             id="path50"
             style="fill:#000000;fill-opacity:1;fill-rule:nonzero;stroke:none"
             d="m 0,0 c -0.572,0.07 -1.144,0.107 -1.715,0.107 -1.848,0.001 -3.477,-0.519 -4.885,-1.56 -1.409,-1.041 -2.5,-2.45 -3.269,-4.225 -0.772,-1.777 -1.159,-3.73 -1.16,-5.861 l -0.013,-20.038 -5.873,0.004 0.024,36.451 5.675,-0.004 -0.004,-6.324 c 0.836,2.178 2.071,3.954 3.7,5.327 1.628,1.372 3.608,2.059 5.94,2.057 0.66,0 1.363,-0.061 2.112,-0.179 C 1.279,5.635 1.874,5.481 2.314,5.292 L 1.32,-0.25 C 1.012,-0.156 0.572,-0.072 0,0" /></g><g
           transform="translate(931.7438,469.0586)"
           id="g52"><path
             id="path54"
             style="fill:#000000;fill-opacity:1;fill-rule:nonzero;stroke:none"
             d="m 0,0 c -1.453,-0.425 -2.86,-0.637 -4.224,-0.636 -2.771,0.002 -4.973,0.82 -6.597,2.456 -1.628,1.635 -2.44,4.158 -2.437,7.568 l 0.015,22.169 -6.204,0.005 0.003,5.329 6.204,-0.005 0.007,10.019 5.873,-0.003 -0.007,-10.02 8.58,-0.005 -0.003,-5.329 -8.58,0.005 -0.015,-21.6 c -0.001,-1.896 0.35,-3.222 1.054,-3.98 0.703,-0.759 1.692,-1.139 2.968,-1.14 1.804,-0.001 3.542,0.472 5.215,1.419 L 3.63,1.631 C 2.663,0.968 1.453,0.425 0,0" /></g><g
           transform="translate(975.3228,505.9066)"
           id="g56"><path
             id="path58"
             style="fill:#000000;fill-opacity:1;fill-rule:nonzero;stroke:none"
             d="m 0,0 9.486,-25.942 h 0.131 l 10.776,25.929 2.111,-0.002 11.136,-25.943 h 0.133 l 9.057,25.929 6.336,-0.004 -14.345,-37.153 -2.114,0.002 -11.333,26.299 H 21.243 L 10.336,-37.169 8.224,-37.168 -6.468,0.005 Z" /></g><g
           transform="translate(1043.8365,475.1284)"
           id="g60"><path
             id="path62"
             style="fill:#000000;fill-opacity:1;fill-rule:nonzero;stroke:none"
             d="m 0,0 c 1.122,-1.113 2.76,-1.671 4.918,-1.672 2.462,-0.002 4.562,0.896 6.303,2.695 1.739,1.798 2.61,4.357 2.612,7.673 l 0.002,1.634 C 10.403,10.474 7.585,10.441 5.386,10.23 3.187,10.017 1.459,9.461 0.204,8.562 -1.05,7.663 -1.676,6.291 -1.678,4.443 -1.68,2.596 -1.119,1.114 0,0 m -5.139,11.231 c 1.739,1.728 4.203,2.91 7.395,3.548 3.189,0.638 7.049,0.813 11.583,0.525 l 0.002,2.345 c 0.001,2.937 -0.594,5.14 -1.779,6.609 -1.187,1.469 -3.166,2.205 -5.938,2.207 -2.332,0.002 -4.18,-0.494 -5.546,-1.488 -1.364,-0.994 -2.686,-2.343 -3.961,-4.048 l -3.959,3.414 c 1.543,2.366 3.469,4.2 5.78,5.502 2.31,1.301 5.049,1.951 8.217,1.949 4.884,-0.004 8.281,-1.285 10.193,-3.845 1.912,-2.559 2.867,-6.041 2.866,-10.446 l -0.018,-23.236 -5.081,0.004 -0.392,5.115 c -0.883,-1.752 -2.258,-3.195 -4.127,-4.331 -1.873,-1.134 -4.105,-1.702 -6.7,-1.7 -3.609,0.003 -6.37,1.021 -8.281,3.061 -1.912,2.037 -2.868,4.596 -2.866,7.675 0.002,3.032 0.874,5.411 2.612,7.14" /></g><g
           transform="translate(1082.8278,505.8343)"
           id="g64"><path
             id="path66"
             style="fill:#000000;fill-opacity:1;fill-rule:nonzero;stroke:none"
             d="m 0,0 11.4,-26.654 h 0.133 L 22.571,-0.015 28.906,-0.02 12.515,-37.171 10.403,-37.17 -6.666,0.004 Z" /></g><g
           transform="translate(1147.333,498.8627)"
           id="g68"><path
             id="path70"
             style="fill:#000000;fill-opacity:1;fill-rule:nonzero;stroke:none"
             d="m 0,0 c -1.649,1.872 -4.123,2.81 -7.422,2.812 -2.157,0.002 -4.016,-0.423 -5.579,-1.276 -1.562,-0.851 -2.816,-2.093 -3.764,-3.727 -0.947,-1.633 -1.552,-3.635 -1.818,-6.003 L 2.667,-8.208 C 2.538,-4.609 1.648,-1.872 0,0 m -16.584,-28.233 c -2.574,1.565 -4.562,3.78 -5.968,6.648 -1.406,2.866 -2.108,6.193 -2.104,9.984 0.002,3.837 0.729,7.236 2.184,10.195 1.453,2.959 3.501,5.267 6.143,6.925 2.639,1.655 5.677,2.483 9.109,2.48 5.586,-0.004 9.708,-1.95 12.37,-5.835 2.658,-3.887 3.786,-9.026 3.386,-15.421 l -27.254,0.018 c 0.173,-2.416 0.743,-4.512 1.712,-6.29 0.964,-1.777 2.275,-3.152 3.923,-4.123 1.649,-0.974 3.552,-1.46 5.707,-1.462 2.376,-0.002 4.532,0.506 6.469,1.524 1.936,1.017 3.475,2.401 4.623,4.153 l 4.154,-3.129 c -1.628,-2.51 -3.742,-4.474 -6.339,-5.893 -2.598,-1.418 -5.633,-2.127 -9.109,-2.125 -3.432,0.003 -6.434,0.786 -9.006,2.351" /></g><g
           transform="translate(1177.9058,475.9978)"
           id="g72"><path
             id="path74"
             style="fill:#000000;fill-opacity:1;fill-rule:nonzero;stroke:none"
             d="m 0,0 c 1.229,-1.518 3.166,-2.276 5.806,-2.278 2.112,-10e-4 3.794,0.518 5.048,1.561 1.255,1.04 1.883,2.556 1.885,4.545 0.002,1.516 -0.327,2.676 -0.987,3.483 C 11.093,8.116 10.29,8.673 9.345,8.983 8.397,9.29 6.891,9.682 4.823,10.158 c -1.979,0.427 -3.716,0.996 -5.211,1.709 -1.495,0.711 -2.74,1.765 -3.727,3.163 -0.989,1.399 -1.482,3.235 -1.48,5.509 0.002,3.221 1.069,5.742 3.205,7.565 2.133,1.822 4.743,2.733 7.823,2.73 3.21,-0.002 5.674,-0.679 7.39,-2.03 1.714,-1.35 3.099,-3.211 4.153,-5.581 L 12.223,20.669 C 11.565,22.232 10.696,23.465 9.617,24.365 8.54,25.266 7.1,25.718 5.297,25.72 3.755,25.72 2.513,25.33 1.566,24.549 0.62,23.768 0.146,22.642 0.145,21.175 0.145,19.469 0.639,18.272 1.629,17.586 2.618,16.897 4.21,16.316 6.411,15.842 6.63,15.746 7.005,15.651 7.534,15.557 9.821,15.08 11.712,14.534 13.209,13.918 14.702,13.301 16,12.246 17.098,10.754 18.197,9.26 18.747,7.188 18.745,4.535 18.743,2.166 18.237,0.058 17.223,-1.788 16.209,-3.635 14.723,-5.09 12.764,-6.155 10.806,-7.219 8.485,-7.751 5.802,-7.749 c -4.4,0.003 -7.655,1.166 -9.765,3.488 -2.11,2.322 -3.341,5.118 -3.691,8.387 L -2.635,5.9 C -2.11,3.483 -1.233,1.516 0,0" /></g></g></g></g></svg>